<?xml version="1.0" encoding="UTF-8" standalone="no"?>
<svg
   xmlns:dc="http://purl.org/dc/elements/1.1/"
   xmlns:cc="http://creativecommons.org/ns#"
   xmlns:rdf="http://www.w3.org/1999/02/22-rdf-syntax-ns#"
   xmlns:svg="http://www.w3.org/2000/svg"
   xmlns="http://www.w3.org/2000/svg"
   xmlns:sodipodi="http://sodipodi.sourceforge.net/DTD/sodipodi-0.dtd"
   xmlns:inkscape="http://www.inkscape.org/namespaces/inkscape"
   viewBox="0 0 64 64"
   enable-background="new 0 0 64 64"
   version="1.1"
   id="svg8"
   sodipodi:docname="videogestalt_icon.svg"
   inkscape:version="1.0.1 (3bc2e813f5, 2020-09-07)">
  <metadata
     id="metadata14">
    <rdf:RDF>
      <cc:Work
         rdf:about="">
        <dc:format>image/svg+xml</dc:format>
        <dc:type
           rdf:resource="http://purl.org/dc/dcmitype/StillImage" />
        <dc:title></dc:title>
      </cc:Work>
    </rdf:RDF>
  </metadata>
  <defs
     id="defs12" />
  <sodipodi:namedview
     pagecolor="#ffffff"
     bordercolor="#666666"
     borderopacity="1"
     objecttolerance="10"
     gridtolerance="10"
     guidetolerance="10"
     inkscape:pageopacity="0"
     inkscape:pageshadow="2"
     inkscape:window-width="1920"
     inkscape:window-height="1001"
     id="namedview10"
     showgrid="false"
     inkscape:snap-center="true"
     inkscape:snap-object-midpoints="true"
     inkscape:zoom="4.5851455"
     inkscape:cx="25.953043"
     inkscape:cy="22.640862"
     inkscape:window-x="-9"
     inkscape:window-y="-9"
     inkscape:window-maximized="1"
     inkscape:current-layer="svg8" />
  <path
     d="M32,12C12.123,12,2,32,2,32s10.123,20,30,20c19.879,0,30-20,30-20S51.879,12,32,12z M32,48.664C15.436,48.664,7,32,7,32    s8.436-16.668,25-16.668C48.566,15.332,57,32,57,32S48.566,48.664,32,48.664z"
     id="path2"
     style="fill:#31e51b;fill-opacity:1" />
  <g
     id="g859"
     transform="matrix(0.48208835,0,0,0.48208835,16.843053,16.264739)"
     style="fill:#d319bc;fill-opacity:1">
    <path
       d="M 35,27.869 C 33.636,30.332 31.014,32 28,32 h 14 c -3.014,0 -5.636,-1.668 -7,-4.131"
       id="path839"
       style="fill:#d319bc;fill-opacity:1" />
    <circle
       cx="28"
       cy="24"
       r="3"
       id="circle841"
       style="fill:#d319bc;fill-opacity:1" />
    <circle
       cx="42"
       cy="24"
       r="3"
       id="circle843"
       style="fill:#d319bc;fill-opacity:1" />
    <path
       d="M 32,2 C 15.432,2 2,15.432 2,32 2,48.568 15.432,62 32,62 48.568,62 62,48.568 62,32 62,15.432 48.568,2 32,2 m 14,30 c 1.1,0 2,0.9 2,2 v 12 c 0,1.1 -0.9,2 -2,2 H 23 c -1.1,0 -2,-0.9 -2,-2 V 45.5 L 16,48 V 32 l 5,2.5 V 34 c 0,-1.1 0.9,-2 2,-2 h 5 c -4.418,0 -8,-3.582 -8,-8 0,-4.418 3.582,-8 8,-8 3.014,0 5.636,1.668 7,4.131 C 36.364,17.668 38.986,16 42,16 c 4.418,0 8,3.582 8,8 0,4.418 -3.582,8 -8,8 h 4"
       id="path845"
       style="fill:#d319bc;fill-opacity:1" />
  </g>
</svg>
